<svg width="69" height="24" viewBox="0 0 69 24" fill="none" xmlns="http://www.w3.org/2000/svg">
<path d="M10.4375 6.13068C10.3466 5.32386 9.97159 4.69886 9.3125 4.25568C8.65341 3.80682 7.82386 3.58239 6.82386 3.58239C6.10795 3.58239 5.48864 3.69602 4.96591 3.92329C4.44318 4.14489 4.03693 4.4517 3.74716 4.84375C3.46307 5.23011 3.32102 5.67045 3.32102 6.16477C3.32102 6.57955 3.41761 6.9375 3.6108 7.23864C3.80966 7.53977 4.06818 7.79261 4.38636 7.99716C4.71023 8.19602 5.05682 8.36364 5.42614 8.5C5.79545 8.63068 6.15057 8.73864 6.49148 8.82386L8.19602 9.26705C8.75284 9.40341 9.32386 9.58807 9.90909 9.82102C10.4943 10.054 11.0369 10.3608 11.5369 10.7415C12.0369 11.1222 12.4403 11.5938 12.7472 12.1562C13.0597 12.7188 13.2159 13.392 13.2159 14.1761C13.2159 15.1648 12.9602 16.0426 12.4489 16.8097C11.9432 17.5767 11.2074 18.1818 10.2415 18.625C9.28125 19.0682 8.11932 19.2898 6.75568 19.2898C5.44886 19.2898 4.31818 19.0824 3.36364 18.6676C2.40909 18.2528 1.66193 17.6648 1.12216 16.9034C0.582386 16.1364 0.284091 15.2273 0.227273 14.1761H2.86932C2.92045 14.8068 3.125 15.3324 3.48295 15.7528C3.84659 16.1676 4.30966 16.4773 4.87216 16.6818C5.44034 16.8807 6.0625 16.9801 6.73864 16.9801C7.48295 16.9801 8.14489 16.8636 8.72443 16.6307C9.30966 16.392 9.76989 16.0625 10.1051 15.642C10.4403 15.2159 10.608 14.7187 10.608 14.1506C10.608 13.6335 10.4602 13.2102 10.1648 12.8807C9.875 12.5511 9.48011 12.2784 8.98011 12.0625C8.4858 11.8466 7.92614 11.6562 7.30114 11.4915L5.23864 10.929C3.84091 10.5483 2.73295 9.98864 1.91477 9.25C1.10227 8.51136 0.696023 7.53409 0.696023 6.31818C0.696023 5.3125 0.96875 4.43466 1.5142 3.68466C2.05966 2.93466 2.7983 2.35227 3.73011 1.9375C4.66193 1.51705 5.71307 1.30682 6.88352 1.30682C8.06534 1.30682 9.10795 1.5142 10.0114 1.92898C10.9205 2.34375 11.6364 2.91477 12.1591 3.64204C12.6818 4.36364 12.9545 5.19318 12.9773 6.13068H10.4375ZM19.968 19.2898C19.1385 19.2898 18.3885 19.1364 17.718 18.8295C17.0476 18.517 16.5163 18.0653 16.1243 17.4744C15.7379 16.8835 15.5447 16.1591 15.5447 15.3011C15.5447 14.5625 15.6868 13.9545 15.9709 13.4773C16.255 13 16.6385 12.6222 17.1214 12.3438C17.6044 12.0653 18.1442 11.8551 18.7408 11.7131C19.3374 11.571 19.9453 11.4631 20.5646 11.3892C21.3487 11.2983 21.9851 11.2244 22.4737 11.1676C22.9624 11.1051 23.3175 11.0057 23.5391 10.8693C23.7607 10.733 23.8714 10.5114 23.8714 10.2045V10.1449C23.8714 9.40057 23.6612 8.82386 23.2408 8.41477C22.826 8.00568 22.2067 7.80114 21.3828 7.80114C20.5249 7.80114 19.8487 7.99148 19.3544 8.37216C18.8658 8.74716 18.5277 9.16477 18.3402 9.625L15.9453 9.07955C16.2294 8.28409 16.6442 7.64205 17.1896 7.15341C17.7408 6.65909 18.3743 6.30114 19.0902 6.07954C19.8061 5.85227 20.5589 5.73864 21.3487 5.73864C21.8714 5.73864 22.4254 5.80114 23.0107 5.92614C23.6016 6.04545 24.1527 6.26705 24.6641 6.59091C25.1811 6.91477 25.6044 7.37784 25.9339 7.98011C26.2635 8.5767 26.4283 9.35227 26.4283 10.3068V19H23.9396V17.2102H23.8374C23.6726 17.5398 23.4254 17.8636 23.0959 18.1818C22.7663 18.5 22.343 18.7642 21.826 18.9744C21.3089 19.1847 20.6896 19.2898 19.968 19.2898ZM20.522 17.2443C21.2266 17.2443 21.8288 17.1051 22.3288 16.8267C22.8345 16.5483 23.218 16.1847 23.4794 15.7358C23.7464 15.2812 23.88 14.7955 23.88 14.2784V12.5909C23.7891 12.6818 23.6129 12.767 23.3516 12.8466C23.0959 12.9205 22.8033 12.9858 22.4737 13.0426C22.1442 13.0937 21.8232 13.142 21.5107 13.1875C21.1982 13.2273 20.9368 13.2614 20.7266 13.2898C20.2322 13.3523 19.7805 13.4574 19.3714 13.6051C18.968 13.7528 18.6442 13.9659 18.3999 14.2443C18.1612 14.517 18.0419 14.8807 18.0419 15.3352C18.0419 15.9659 18.2749 16.4432 18.7408 16.767C19.2067 17.0852 19.8004 17.2443 20.522 17.2443ZM32.3707 11.2273V19H29.8224V5.90909H32.2685V8.03977H32.4304C32.7315 7.34659 33.2031 6.78977 33.8452 6.36932C34.4929 5.94886 35.3082 5.73864 36.2912 5.73864C37.1832 5.73864 37.9645 5.92614 38.6349 6.30114C39.3054 6.67045 39.8253 7.22159 40.1946 7.95455C40.5639 8.6875 40.7486 9.59375 40.7486 10.6733V19H38.2003V10.9801C38.2003 10.0312 37.9531 9.28977 37.4588 8.75568C36.9645 8.21591 36.2855 7.94602 35.4219 7.94602C34.831 7.94602 34.3054 8.07386 33.8452 8.32955C33.3906 8.58523 33.0298 8.96023 32.7628 9.45455C32.5014 9.94318 32.3707 10.5341 32.3707 11.2273ZM44.1662 5.90909H46.7145V19.8523C46.7145 20.7273 46.5554 21.4659 46.2372 22.0682C45.9247 22.6705 45.4588 23.1278 44.8395 23.4403C44.2259 23.7528 43.4673 23.9091 42.5639 23.9091C42.473 23.9091 42.3878 23.9091 42.3082 23.9091C42.223 23.9091 42.1349 23.9063 42.044 23.9006V21.7102C42.1236 21.7102 42.1946 21.7102 42.2571 21.7102C42.3139 21.7102 42.3793 21.7102 42.4531 21.7102C43.0554 21.7102 43.4901 21.5483 43.7571 21.2244C44.0298 20.9063 44.1662 20.4432 44.1662 19.8352V5.90909ZM45.4276 3.8892C44.9844 3.8892 44.6037 3.74148 44.2855 3.44602C43.973 3.14489 43.8168 2.78693 43.8168 2.37216C43.8168 1.9517 43.973 1.59375 44.2855 1.29829C44.6037 0.997159 44.9844 0.846591 45.4276 0.846591C45.8707 0.846591 46.2486 0.997159 46.5611 1.29829C46.8793 1.59375 47.0384 1.9517 47.0384 2.37216C47.0384 2.78693 46.8793 3.14489 46.5611 3.44602C46.2486 3.74148 45.8707 3.8892 45.4276 3.8892ZM50.1428 19V5.90909H52.6911V19H50.1428ZM51.4297 3.8892C50.9865 3.8892 50.6058 3.74148 50.2876 3.44602C49.9751 3.14489 49.8189 2.78693 49.8189 2.37216C49.8189 1.9517 49.9751 1.59375 50.2876 1.29829C50.6058 0.997159 50.9865 0.846591 51.4297 0.846591C51.8729 0.846591 52.2507 0.997159 52.5632 1.29829C52.8814 1.59375 53.0405 1.9517 53.0405 2.37216C53.0405 2.78693 52.8814 3.14489 52.5632 3.44602C52.2507 3.74148 51.8729 3.8892 51.4297 3.8892ZM62.2301 5.90909V7.95455H55.0795V5.90909H62.2301ZM56.9972 2.77273H59.5455V15.1562C59.5455 15.6506 59.6193 16.0227 59.767 16.2727C59.9148 16.517 60.1051 16.6847 60.3381 16.7756C60.5767 16.8608 60.8352 16.9034 61.1136 16.9034C61.3182 16.9034 61.4972 16.8892 61.6506 16.8608C61.804 16.8324 61.9233 16.8097 62.0085 16.7926L62.4688 18.8977C62.321 18.9545 62.1108 19.0114 61.8381 19.0682C61.5653 19.1307 61.2244 19.1648 60.8153 19.1705C60.1449 19.1818 59.5199 19.0625 58.9403 18.8125C58.3608 18.5625 57.892 18.1761 57.5341 17.6534C57.1761 17.1307 56.9972 16.4744 56.9972 15.6847V2.77273ZM66.728 19.1619C66.2621 19.1619 65.8615 18.9972 65.5263 18.6676C65.1911 18.3324 65.0234 17.929 65.0234 17.4574C65.0234 16.9915 65.1911 16.5937 65.5263 16.2642C65.8615 15.929 66.2621 15.7614 66.728 15.7614C67.1939 15.7614 67.5945 15.929 67.9297 16.2642C68.2649 16.5937 68.4325 16.9915 68.4325 17.4574C68.4325 17.7699 68.353 18.0568 68.1939 18.3182C68.0405 18.5739 67.8359 18.7784 67.5803 18.9318C67.3246 19.0852 67.0405 19.1619 66.728 19.1619Z" fill="black"/>
</svg>
